HIERARCHY
ROOT Root
{
	OFFSET 0.00 0.00 0.00
	CHANNELS 6 Xposition Yposition Zposition Xrotation Yrotation Zrotation
	JOINT L_Femur
	{
		OFFSET 2.78527 0.00000 0.00000
		CHANNELS 3 Xrotation Yrotation Zrotation
		JOINT L_Tibia
		{
			OFFSET 0.00000 -16.41095 0.00000
			CHANNELS 3 Xrotation Yrotation Zrotation
			JOINT L_Foot
			{
				OFFSET 0.00000 -14.21163 0.00000
				CHANNELS 3 Xrotation Yrotation Zrotation
				JOINT L_Toe
				{
					OFFSET 0.00000 -1.60827 6.00215
					CHANNELS 3 Xrotation Yrotation Zrotation
					End Site
					{
						OFFSET 0.00000 0.00000 2.95275
					}
				}
			}
		}
	}
	JOINT R_Femur
	{
		OFFSET -2.78527 0.00000 0.00000
		CHANNELS 3 Xrotation Yrotation Zrotation
		JOINT R_Tibia
		{
			OFFSET 0.00000 -16.41095 0.00000
			CHANNELS 3 Xrotation Yrotation Zrotation
			JOINT R_Foot
			{
				OFFSET 0.00000 -14.21163 0.00000
				CHANNELS 3 Xrotation Yrotation Zrotation
				JOINT R_Toe
				{
					OFFSET 0.00000 -1.60827 6.00215
					CHANNELS 3 Xrotation Yrotation Zrotation
					End Site
					{
						OFFSET 0.00000 0.00000 2.95275
					}
				}
			}
		}
	}
	JOINT LowerBack
	{
		OFFSET 0.00000 0.03937 0.00000
		CHANNELS 3 Xrotation Yrotation Zrotation
		JOINT Thorax
		{
			OFFSET 0.00000 7.01329 0.00000
			CHANNELS 3 Xrotation Yrotation Zrotation
			JOINT Neck
			{
				OFFSET 0.00000 7.25825 0.00000
				CHANNELS 3 Xrotation Yrotation Zrotation
				JOINT Head
				{
					OFFSET 0.00000 5.63334 0.00000
					CHANNELS 3 Xrotation Yrotation Zrotation
					End Site
					{
						OFFSET 0.00000 4.52755 0.00000
					}
				}
			}
			JOINT L_Collar
			{
				OFFSET 0.00000 7.25825 0.00000
				CHANNELS 3 Xrotation Yrotation Zrotation
				JOINT L_Humerus
				{
					OFFSET 6.91821 -0.00003 0.00000
					CHANNELS 3 Xrotation Yrotation Zrotation
					JOINT L_Elbow
					{
						OFFSET 10.34006 -0.00004 0.00000
						CHANNELS 3 Xrotation Yrotation Zrotation
						JOINT L_Wrist
						{
							OFFSET 7.25554 -0.00003 0.00000
							CHANNELS 3 Xrotation Yrotation Zrotation
							JOINT L_Thumb
							{
								OFFSET 0.00000 0.00000 0.00000
								CHANNELS 3 Xrotation Yrotation Zrotation
								End Site
								{
									OFFSET 0.00000 0.00000 3.93700
								}
							}
							JOINT L_Wrist_End
							{
								OFFSET 3.93700 -0.00001 0.00000
								CHANNELS 3 Xrotation Yrotation Zrotation
							}
						}
					}
				}
			}
			JOINT R_Collar
			{
				OFFSET 0.00000 7.25825 0.00000
				CHANNELS 3 Xrotation Yrotation Zrotation
				JOINT R_Humerus
				{
					OFFSET -6.91821 -0.00003 0.00000
					CHANNELS 3 Xrotation Yrotation Zrotation
					JOINT R_Elbow
					{
						OFFSET -10.34006 -0.00004 0.00000
						CHANNELS 3 Xrotation Yrotation Zrotation
						JOINT R_Wrist
						{
							OFFSET -7.25554 -0.00003 0.00000
							CHANNELS 3 Xrotation Yrotation Zrotation
							JOINT R_Thumb
							{
								OFFSET 0.00000 0.00000 0.00000
								CHANNELS 3 Xrotation Yrotation Zrotation
								End Site
								{
									OFFSET 0.00000 0.00000 3.93700
								}
							}
							JOINT R_Wrist_End
							{
								OFFSET -5.39369 -0.00002 0.00000
								CHANNELS 3 Xrotation Yrotation Zrotation
							}
						}
					}
				}
			}
		}
	}
}
MOTION
Frames: 6
Frame Time: 0.066664
 -19.7006 32.7644 0.2842 4.8807 -11.9597 -0.3527 0.0679 37.1409 6.0532 4.5539 0.0000 0.0000 -9.4125 -3.5015 -2.1605 -6.6394 0.0000 -0.0000 -5.1036 9.1529 -8.3373 1.9412 -0.0000 0.0000 -4.8728 12.0015 9.8110 -10.5359 0.0000 0.0000 -4.9864 -1.7413 -9.6662 3.0441 -1.5420 11.1076 2.1468 -37.9564 4.7724 -7.3295 50.3804 7.2658 -2.7410 29.5950 17.7709 -25.1474 -3.3205 -25.4879 -0.0001 -21.2275 -0.0000 -7.7556 4.0256 -0.1609 -0.0000 0.0000 -0.0000 -0.0000 0.0000 -0.0000 0.9725 -10.4385 -19.8375 -51.1271 -6.0045 34.5160 -0.0001 21.9969 0.0000 8.1692 0.0038 -14.3274 -0.0000 0.0000 -0.0000 -0.0000 0.0000 -0.0000
 -19.6611 32.7613 0.2866 4.8560 -11.9314 -0.3705 0.0658 37.0543 6.0093 4.6649 0.0000 0.0000 -9.5330 -3.4419 -2.2019 -6.5432 0.0000 0.0000 -5.1134 9.2727 -8.3942 2.0567 -0.0000 0.0000 -4.8982 11.8507 9.8996 -10.5773 0.0000 -0.0000 -4.9693 -1.7673 -9.7343 3.0085 -1.5684 11.0879 2.2302 -37.9246 4.7425 -7.2392 50.5650 7.2781 -2.7110 29.6271 17.7722 -25.3371 -3.3363 -25.4429 -0.0001 -21.2142 -0.0000 -7.8484 4.0006 -0.1021 -0.0000 0.0000 -0.0000 -0.0000 0.0000 -0.0000 1.0525 -10.4221 -19.8531 -51.2498 -6.1738 34.5061 -0.0001 22.1874 0.0000 8.3057 -0.0177 -14.3160 -0.0000 0.0000 -0.0000 -0.0000 0.0000 -0.0000
 -19.5937 32.7578 0.2865 4.8136 -11.8818 -0.3808 0.0999 36.9824 5.9033 4.7966 -0.0000 0.0000 -9.6942 -3.4292 -2.2321 -6.5675 0.0000 0.0000 -5.0981 9.1980 -8.5069 2.1090 0.0000 0.0000 -4.8854 11.8443 9.8517 -10.6060 0.0000 -0.0000 -4.9848 -1.7639 -9.7657 3.0098 -1.5720 11.0765 2.3357 -37.9560 4.7025 -7.1031 50.7550 7.1321 -2.6488 29.6411 17.7233 -25.2709 -3.5011 -25.4597 -0.0001 -21.3006 -0.0000 -7.7728 4.0032 -0.1543 -0.0000 0.0000 -0.0000 -0.0000 0.0000 -0.0000 1.1087 -10.3921 -19.8756 -51.1073 -6.1205 34.5997 -0.0001 22.5501 0.0000 8.3060 -0.0135 -14.2456 -0.0000 -0.0000 0.0000 -0.0000 -0.0000 0.0000
 -19.4892 32.7530 0.2969 4.7286 -11.7502 -0.2404 0.4487 36.6953 5.4375 4.7722 0.0000 0.0000 -9.7870 -3.2673 -2.0465 -6.5581 0.0000 0.0000 -5.0232 9.1207 -8.8616 2.2370 -0.0000 0.0000 -4.9675 11.8130 10.0049 -10.5504 0.0000 0.0000 -4.9962 -1.7489 -9.8417 3.0689 -1.5740 11.0055 2.3841 -38.4049 4.6732 -6.9585 51.3008 6.9400 -2.5586 29.7176 17.5472 -25.5176 -3.6473 -25.5189 -0.0001 -21.3166 -0.0000 -7.7009 3.9786 -0.1790 -0.0000 0.0000 -0.0000 -0.0000 0.0000 -0.0000 1.0936 -10.3901 -19.9062 -50.9215 -5.9329 34.7299 -0.0001 22.8970 0.0000 8.3488 0.0207 -14.2916 -0.0000 0.0000 -0.0000 -0.0000 0.0000 -0.0000
 -19.3878 32.7479 0.3045 4.6918 -11.6178 -0.2366 0.6257 36.6693 5.1889 4.7040 0.0000 0.0000 -9.9090 -3.4040 -2.1831 -6.5442 0.0000 0.0000 -5.0274 9.1662 -9.0440 2.4244 -0.0000 -0.0000 -5.0253 11.6093 9.8993 -10.5340 0.0000 0.0000 -5.0118 -1.7107 -9.8593 3.0894 -1.5451 10.9804 2.4124 -38.5632 4.7662 -6.6336 51.6288 6.5041 -2.6146 29.7027 17.5441 -25.5859 -3.6705 -25.6048 -0.0001 -21.2885 -0.0000 -7.8136 3.9631 -0.1959 -0.0000 0.0000 -0.0000 -0.0000 0.0000 -0.0000 1.1304 -10.3351 -19.8767 -50.8951 -5.8796 34.7524 -0.0001 23.1395 0.0000 8.4502 -0.0394 -14.2489 -0.0000 -0.0000 0.0000 -0.0000 -0.0000 0.0000
 -19.2779 32.7444 0.3201 4.6308 -11.4281 -0.1520 0.8532 36.4635 4.8345 4.7586 -0.0000 0.0000 -10.0355 -3.3909 -2.1077 -6.5441 0.0000 0.0000 -4.9582 9.0838 -9.3472 2.5608 -0.0000 -0.0000 -5.0786 11.4988 9.8323 -10.6005 0.0000 0.0000 -5.0362 -1.6857 -9.8824 3.0635 -1.5400 10.8912 2.4665 -38.8445 4.8844 -5.7780 52.1549 5.4480 -2.6314 29.6877 17.4914 -25.7956 -3.6276 -25.6449 -0.0001 -21.2447 -0.0000 -7.9132 3.9605 -0.1843 -0.0000 0.0000 -0.0000 -0.0000 0.0000 -0.0000 1.1375 -10.2967 -19.8772 -50.8723 -5.8278 34.8663 -0.0001 23.1697 0.0000 8.2886 0.0458 -14.2394 -0.0000 -0.0000 0.0000 -0.0000 -0.0000 0.0000
